<svg width="472" height="128" viewBox="0 0 236 64" fill="none" xmlns="http://www.w3.org/2000/svg" role="img" aria-label="GestorNiq full logo">
  <rect x="2" y="2" width="60" height="60" rx="14" fill="#0B1220" />

  <rect x="7" y="7" width="14" height="14" rx="3" fill="#1D4ED8" />
  <rect x="25" y="7" width="14" height="14" rx="3" fill="#1D4ED8" />
  <rect x="43" y="7" width="14" height="14" rx="3" fill="#1D4ED8" />

  <rect x="7" y="25" width="14" height="14" rx="3" fill="#1D4ED8" />
  <rect x="25" y="25" width="14" height="14" rx="3" fill="#1D4ED8" />
  <rect x="43" y="25" width="14" height="14" rx="3" fill="#1D4ED8" />

  <rect x="7" y="43" width="14" height="14" rx="3" fill="#1D4ED8" />
  <rect x="25" y="43" width="14" height="14" rx="3" fill="#1D4ED8" />
  <rect x="43" y="43" width="14" height="14" rx="3" fill="#1D4ED8" />

  <path d="M11.9 47.9L51.8 16.5L53.2 17.9L56 8L46.1 10.8L47.5 12.2L16.1 52.1Z" fill="#F9FAFB" />

  <text x="80" y="39" fill="#F9FAFB" font-size="28" font-weight="600" letter-spacing="-0.03em" font-family="Inter, -apple-system, BlinkMacSystemFont, 'Segoe UI', sans-serif">Gestor</text>
  <text x="171" y="39" fill="#2563EB" font-size="28" font-weight="600" letter-spacing="-0.03em" font-family="Inter, -apple-system, BlinkMacSystemFont, 'Segoe UI', sans-serif">Niq</text>
</svg>
